<svg xmlns="http://www.w3.org/2000/svg" viewBox="0 0 1200 120" role="img" aria-labelledby="title desc">
  <title id="title">Research motif</title>
  <desc id="desc">Minimal line art combining camera geometry, a point cloud, and fluid streamlines.</desc>
  <style>
    .grid { stroke: #d0d7de; }
    .primary { stroke: #0969da; }
    .secondary { stroke: #8250df; }
    .point-a { fill: #0969da; }
    .point-b { fill: #8250df; }
    @media (prefers-color-scheme: dark) {
      .grid { stroke: #30363d; }
      .primary { stroke: #58a6ff; }
      .secondary { stroke: #a371f7; }
      .point-a { fill: #58a6ff; }
      .point-b { fill: #a371f7; }
    }
  </style>

  <g class="grid" fill="none" stroke-width="1" opacity="0.55">
    <path d="M0 30H1200M0 60H1200M0 90H1200" />
    <path d="M100 0V120M300 0V120M500 0V120M700 0V120M900 0V120M1100 0V120" />
  </g>

  <g fill="none" stroke-linecap="round" stroke-linejoin="round">
    <g class="primary" stroke-width="1.6" opacity="0.78">
      <path d="M72 61L123 34L123 88Z" />
      <path d="M72 61L156 61M123 34L156 61L123 88" />
      <circle cx="72" cy="61" r="4" />
      <path d="M182 43L220 25L220 65Z" />
      <path d="M182 43L246 46M220 25L246 46L220 65" />
      <circle cx="182" cy="43" r="3" />
      <path d="M52 101C170 76 274 79 372 61" stroke-dasharray="3 7" opacity="0.45" />
    </g>

    <g class="secondary" stroke-width="1.4" opacity="0.55">
      <path d="M257 83L293 68L293 101Z" />
      <path d="M257 83L320 85M293 68L320 85L293 101" />
      <circle cx="257" cy="83" r="3" />
    </g>

    <g class="primary" stroke-width="1.5" opacity="0.7">
      <path d="M735 65C790 16 858 16 906 58C947 94 999 95 1062 49C1101 21 1146 28 1200 60" />
      <path d="M721 77C785 41 836 45 882 73C934 105 1003 106 1066 68C1110 42 1153 44 1200 71" opacity="0.6" />
      <path d="M749 49C810 4 872 5 923 45C963 76 1009 76 1057 42C1100 12 1148 17 1200 47" opacity="0.4" />
    </g>

    <g class="secondary" stroke-width="1.2" opacity="0.58">
      <path d="M766 88C832 58 883 66 927 91C967 114 1021 112 1075 84C1120 61 1161 62 1200 82" />
      <path d="M799 28C852 11 903 20 943 51C978 78 1014 80 1052 59" stroke-dasharray="2 6" />
    </g>
  </g>

  <g opacity="0.88">
    <circle class="point-a" cx="355" cy="68" r="2.1" />
    <circle class="point-a" cx="374" cy="55" r="1.7" />
    <circle class="point-b" cx="390" cy="75" r="2.4" />
    <circle class="point-a" cx="406" cy="43" r="1.5" />
    <circle class="point-a" cx="421" cy="64" r="2.2" />
    <circle class="point-b" cx="438" cy="82" r="1.7" />
    <circle class="point-a" cx="454" cy="51" r="2.5" />
    <circle class="point-b" cx="468" cy="35" r="1.5" />
    <circle class="point-a" cx="480" cy="72" r="1.8" />
    <circle class="point-a" cx="496" cy="58" r="2.6" />
    <circle class="point-b" cx="512" cy="87" r="1.5" />
    <circle class="point-a" cx="528" cy="46" r="2" />
    <circle class="point-b" cx="543" cy="67" r="2.7" />
    <circle class="point-a" cx="558" cy="28" r="1.5" />
    <circle class="point-a" cx="572" cy="78" r="2.1" />
    <circle class="point-b" cx="590" cy="53" r="1.8" />
    <circle class="point-a" cx="607" cy="91" r="2.5" />
    <circle class="point-b" cx="621" cy="39" r="1.5" />
    <circle class="point-a" cx="638" cy="63" r="2.1" />
    <circle class="point-a" cx="655" cy="76" r="1.6" />
    <circle class="point-b" cx="671" cy="48" r="2.4" />
    <circle class="point-a" cx="690" cy="69" r="1.7" />
    <circle class="point-b" cx="705" cy="57" r="1.4" />
  </g>

  <g fill="none" stroke-linecap="round" opacity="0.3">
    <path class="primary" d="M335 92C421 28 549 29 724 78" stroke-width="1.2" />
    <path class="secondary" d="M350 99C449 52 571 48 739 84" stroke-width="1" stroke-dasharray="4 7" />
  </g>
</svg>
